<?xml version="1.0" encoding="UTF-8" standalone="no"?>
<!-- Created with Inkscape (http://www.inkscape.org/) -->

<svg
   xmlns:dc="http://purl.org/dc/elements/1.1/"
   xmlns:cc="http://creativecommons.org/ns#"
   xmlns:rdf="http://www.w3.org/1999/02/22-rdf-syntax-ns#"
   xmlns:svg="http://www.w3.org/2000/svg"
   xmlns="http://www.w3.org/2000/svg"
   xmlns:sodipodi="http://sodipodi.sourceforge.net/DTD/sodipodi-0.dtd"
   xmlns:inkscape="http://www.inkscape.org/namespaces/inkscape"
   version="1.1"
   id="svg2"
   xml:space="preserve"
   width="840.81018"
   height="420.52048"
   viewBox="0 0 840.81015 420.52046"
   sodipodi:docname="logo-vida.svg"
   inkscape:version="0.92.4 5da689c313, 2019-01-14"><metadata
     id="metadata8"><rdf:RDF><cc:Work
         rdf:about=""><dc:format>image/svg+xml</dc:format><dc:type
           rdf:resource="http://purl.org/dc/dcmitype/StillImage" /><dc:title></dc:title></cc:Work></rdf:RDF></metadata><defs
     id="defs6"><clipPath
       clipPathUnits="userSpaceOnUse"
       id="clipPath20"><path
         d="m 636.6,516.948 c 1.285,0.668 2.621,0.923 3.993,0.949 v 0 c 15.792,0.301 18.22,-68.333 17.533,-81.667 v 0 c -1.927,-37.415 -9.45,-55.146 -29.508,-53.372 v 0 c 16.687,-5.754 43.535,1.478 49.532,29.686 v 0 c 0.256,10.359 0.045,19.941 -0.573,28.774 v 0 c -0.915,13.048 -6.606,44.427 -16.306,66.841 v 0 c -3.003,6.941 -9.601,11.158 -16.334,11.157 v 0 c -2.842,0 -5.709,-0.752 -8.337,-2.368"
         id="path18"
         inkscape:connector-curvature="0" /></clipPath><linearGradient
       x1="0"
       y1="0"
       x2="1"
       y2="0"
       gradientUnits="userSpaceOnUse"
       gradientTransform="matrix(-60.352783,-115.61129,115.61129,-60.352783,678.72229,503.81918)"
       spreadMethod="pad"
       id="linearGradient34"><stop
         style="stop-opacity:1;stop-color:#231e46"
         offset="0"
         id="stop26" /><stop
         style="stop-opacity:1;stop-color:#48bed8"
         offset="0.317204"
         id="stop28" /><stop
         style="stop-opacity:1;stop-color:#7263a9"
         offset="0.66129"
         id="stop30" /><stop
         style="stop-opacity:1;stop-color:#e9427d"
         offset="1"
         id="stop32" /></linearGradient><clipPath
       clipPathUnits="userSpaceOnUse"
       id="clipPath44"><path
         d="M 0,850.394 H 850.394 V 0 H 0 Z"
         id="path42"
         inkscape:connector-curvature="0" /></clipPath><clipPath
       clipPathUnits="userSpaceOnUse"
       id="clipPath52"><path
         d="m 657.189,473.501 h 18.773 v -31.722 h -18.773 z"
         id="path50"
         inkscape:connector-curvature="0" /></clipPath><clipPath
       clipPathUnits="userSpaceOnUse"
       id="clipPath68"><path
         d="m 532.833,471.056 c 5.839,10.333 62.32,-39.609 91.189,-39.742 v 0 c 21.806,-0.1 37.419,18.691 57.004,29.544 v 0 c 11.501,6.374 33.138,16.634 36.698,-3.947 v 0 c -0.636,26.29 -25.785,22.446 -41.737,15.162 v 0 c -17.519,-8.001 -37.264,-19.855 -53.228,-19.43 v 0 c -20.943,0.56 -45.675,18.498 -63.35,27.921 v 0 c -4.031,2.149 -8.854,3.445 -13.28,3.444 v 0 c -7.403,0 -13.693,-3.626 -13.296,-12.952"
         id="path66"
         inkscape:connector-curvature="0" /></clipPath><linearGradient
       x1="0"
       y1="0"
       x2="1"
       y2="0"
       gradientUnits="userSpaceOnUse"
       gradientTransform="matrix(-183.96394,-7.8197484,7.8197484,-183.96394,717.45947,463.27768)"
       spreadMethod="pad"
       id="linearGradient80"><stop
         style="stop-opacity:1;stop-color:#7263a9"
         offset="0"
         id="stop74" /><stop
         style="stop-opacity:1;stop-color:#48bed8"
         offset="0.5"
         id="stop76" /><stop
         style="stop-opacity:1;stop-color:#7263a9"
         offset="1"
         id="stop78" /></linearGradient><clipPath
       clipPathUnits="userSpaceOnUse"
       id="clipPath90"><path
         d="M 0,850.394 H 850.394 V 0 H 0 Z"
         id="path88"
         inkscape:connector-curvature="0" /></clipPath><clipPath
       clipPathUnits="userSpaceOnUse"
       id="clipPath98"><path
         d="m 594.888,459.265 h 25.087 v -27.537 h -25.087 z"
         id="path96"
         inkscape:connector-curvature="0" /></clipPath><clipPath
       clipPathUnits="userSpaceOnUse"
       id="clipPath114"><path
         d="m 696.904,502.99 c -0.088,-8.851 4.154,-16.736 10.751,-21.647 v 0 c -8.471,-0.701 -19.064,-3.68 -32.173,-9.501 v 0 c 25.989,10.174 41.544,5.069 42.242,-14.931 v 0 c 0.449,-12.904 -7.461,-36.263 -30.018,-77.336 v 0 c -34.667,-63.122 -47.134,-67.884 -57.714,-51.007 v 0 c 1.481,-23.075 19.137,-42.4 37.166,-31.409 v 0 c 11.629,14.417 24.821,34.561 39.712,61.482 v 0 c 19.403,35.077 43.509,99.364 21.033,117.8 v 0 c 12.532,2.064 22.151,12.885 22.28,26.022 v 0 c 0.146,14.712 -11.663,26.758 -26.375,26.903 v 0 c -0.09,10e-4 -0.178,0.002 -0.268,0.002 v 0 c -14.591,-0.001 -26.49,-11.754 -26.636,-26.378"
         id="path112"
         inkscape:connector-curvature="0" /></clipPath><linearGradient
       x1="0"
       y1="0"
       x2="1"
       y2="0"
       gradientUnits="userSpaceOnUse"
       gradientTransform="matrix(9.8681221,-232.15309,232.15309,9.8681221,685.3349,527.76813)"
       spreadMethod="pad"
       id="linearGradient128"><stop
         style="stop-opacity:1;stop-color:#48bed8"
         offset="0"
         id="stop120" /><stop
         style="stop-opacity:1;stop-color:#fdc420"
         offset="0.494624"
         id="stop122" /><stop
         style="stop-opacity:1;stop-color:#e9427d"
         offset="0.758065"
         id="stop124" /><stop
         style="stop-opacity:1;stop-color:#231e46"
         offset="1"
         id="stop126" /></linearGradient><clipPath
       clipPathUnits="userSpaceOnUse"
       id="clipPath138"><path
         d="m 605.751,554.469 c -0.131,-13.183 8.647,-24.376 20.723,-27.865 v 0 c -4.973,-5.564 -9.595,-14.488 -13.731,-25.741 v 0 C 578.461,407.575 577.601,154.125 687.307,325.666 v 0 c -66.684,-95.122 -82.263,109.428 -64.701,167.397 v 0 c 2.362,7.799 5.138,14.137 8.28,18.458 v 0 c 10.377,14.274 25.866,5.827 32.113,-7.554 v 0 c -4.198,10.671 -9.239,19.825 -15.051,24.874 v 0 c 8.964,4.782 15.105,14.185 15.214,25.06 v 0 c 0.156,15.854 -12.567,28.833 -28.422,28.989 v 0 c -0.097,10e-4 -0.193,0.002 -0.289,0.002 v 0 c -15.722,0 -28.544,-12.666 -28.7,-28.423"
         id="path136"
         inkscape:connector-curvature="0" /></clipPath><linearGradient
       x1="0"
       y1="0"
       x2="1"
       y2="0"
       gradientUnits="userSpaceOnUse"
       gradientTransform="matrix(13.368664,-314.50528,314.50528,13.368664,629.52344,582.70898)"
       spreadMethod="pad"
       id="linearGradient154"><stop
         style="stop-opacity:1;stop-color:#48bed8"
         offset="0"
         id="stop144" /><stop
         style="stop-opacity:1;stop-color:#fdc420"
         offset="0.494624"
         id="stop146" /><stop
         style="stop-opacity:1;stop-color:#e9427d"
         offset="0.758065"
         id="stop148" /><stop
         style="stop-opacity:1;stop-color:#e9427d"
         offset="0.89166297"
         id="stop150" /><stop
         style="stop-opacity:1;stop-color:#231e46"
         offset="1"
         id="stop152" /></linearGradient><clipPath
       clipPathUnits="userSpaceOnUse"
       id="clipPath164"><path
         d="M 0,850.394 H 850.394 V 0 H 0 Z"
         id="path162"
         inkscape:connector-curvature="0" /></clipPath><clipPath
       clipPathUnits="userSpaceOnUse"
       id="clipPath172"><path
         d="m 592.32,401.049 h 33.36 v -58.72 h -33.36 z"
         id="path170"
         inkscape:connector-curvature="0" /></clipPath><clipPath
       clipPathUnits="userSpaceOnUse"
       id="clipPath188"><path
         d="m 507.739,513.967 c -0.112,-11.212 6.452,-20.933 15.986,-25.39 v 0 c -26.253,-10.303 7.739,-84.897 71.024,-125.674 v 0 c 6.896,-4.444 14.988,-9.149 22.236,-13.13 v 0 c 37.521,-20.604 58.37,8.683 60.706,51.31 v 0 c 0.543,9.899 0.685,19.153 0.47,27.78 v 0 c -4.689,-42.587 -27.481,-47.636 -47.577,-46.188 v 0 c -43.526,3.138 -97.195,68.647 -97.751,88.381 v 0 c 0.488,9.358 9.394,16.806 29.032,8.234 v 0 c -6.751,3.69 -12.705,6.313 -17.92,8.02 v 0 c 11.048,3.555 19.093,13.865 19.214,26.109 v 0 c 0.152,15.304 -12.131,27.833 -27.437,27.985 v 0 c -0.093,10e-4 -0.186,10e-4 -0.279,10e-4 v 0 c -15.176,0 -27.554,-12.226 -27.704,-27.438"
         id="path186"
         inkscape:connector-curvature="0" /></clipPath><linearGradient
       x1="0"
       y1="0"
       x2="1"
       y2="0"
       gradientUnits="userSpaceOnUse"
       gradientTransform="matrix(124.56744,-196.02963,196.02963,124.56744,531.17865,543.8175)"
       spreadMethod="pad"
       id="linearGradient204"><stop
         style="stop-opacity:1;stop-color:#48bed8"
         offset="0"
         id="stop194" /><stop
         style="stop-opacity:1;stop-color:#fdc420"
         offset="0.494624"
         id="stop196" /><stop
         style="stop-opacity:1;stop-color:#e9427d"
         offset="0.758065"
         id="stop198" /><stop
         style="stop-opacity:1;stop-color:#e9427d"
         offset="0.90161084"
         id="stop200" /><stop
         style="stop-opacity:1;stop-color:#231e46"
         offset="1"
         id="stop202" /></linearGradient><clipPath
       clipPathUnits="userSpaceOnUse"
       id="clipPath214"><path
         d="M 0,850.394 H 850.394 V 0 H 0 Z"
         id="path212"
         inkscape:connector-curvature="0" /></clipPath></defs><sodipodi:namedview
     pagecolor="#ffffff"
     bordercolor="#666666"
     borderopacity="1"
     objecttolerance="10"
     gridtolerance="10"
     guidetolerance="10"
     inkscape:pageopacity="0"
     inkscape:pageshadow="2"
     inkscape:window-width="1920"
     inkscape:window-height="1016"
     id="namedview4"
     showgrid="false"
     inkscape:zoom="0.83255528"
     inkscape:cx="453.21205"
     inkscape:cy="277.34969"
     inkscape:window-x="0"
     inkscape:window-y="27"
     inkscape:window-maximized="1"
     inkscape:current-layer="g10" /><g
     id="g10"
     inkscape:groupmode="layer"
     inkscape:label="logo-IV"
     transform="matrix(1.3333333,0,0,-1.3333333,-159.4356,777.18931)"><g
       id="g14"><g
         id="g16"
         clip-path="url(#clipPath20)"><g
           id="g22"><g
             id="g24"><path
               d="m 636.6,516.948 c 1.285,0.668 2.621,0.923 3.993,0.949 v 0 c 15.792,0.301 18.22,-68.333 17.533,-81.667 v 0 c -1.927,-37.415 -9.45,-55.146 -29.508,-53.372 v 0 c 16.687,-5.754 43.535,1.478 49.532,29.686 v 0 c 0.256,10.359 0.045,19.941 -0.573,28.774 v 0 c -0.915,13.048 -6.606,44.427 -16.306,66.841 v 0 c -3.003,6.941 -9.601,11.158 -16.334,11.157 v 0 c -2.842,0 -5.709,-0.752 -8.337,-2.368"
               style="fill:url(#linearGradient34);stroke:none"
               id="path36"
               inkscape:connector-curvature="0" /></g></g></g></g><g
       id="g38"><g
         id="g40"
         clip-path="url(#clipPath44)"><g
           id="g46"><g
             id="g48" /><g
             id="g60"><g
               clip-path="url(#clipPath52)"
               id="g58"
               style="opacity:0.19999701"><g
                 transform="translate(672.1992,473.5016)"
                 id="g56"><path
                   d="m 0,0 c 1.593,-6.853 2.853,-13.412 3.763,-19.104 -6.052,-3.974 -11.798,-8.47 -17.734,-12.619 -0.01,5.993 -0.298,14.848 -1.04,24.426 C -9.991,-4.882 -5.016,-2.361 0,0"
                   style="fill:#412214;fill-opacity:1;fill-rule:nonzero;stroke:none"
                   id="path54"
                   inkscape:connector-curvature="0" /></g></g></g></g></g></g><g
       id="g62"><g
         id="g64"
         clip-path="url(#clipPath68)"><g
           id="g70"><g
             id="g72"><path
               d="m 532.833,471.056 c 5.839,10.333 62.32,-39.609 91.189,-39.742 v 0 c 21.806,-0.1 37.419,18.691 57.004,29.544 v 0 c 11.501,6.374 33.138,16.634 36.698,-3.947 v 0 c -0.636,26.29 -25.785,22.446 -41.737,15.162 v 0 c -17.519,-8.001 -37.264,-19.855 -53.228,-19.43 v 0 c -20.943,0.56 -45.675,18.498 -63.35,27.921 v 0 c -4.031,2.149 -8.854,3.445 -13.28,3.444 v 0 c -7.403,0 -13.693,-3.626 -13.296,-12.952"
               style="fill:url(#linearGradient80);stroke:none"
               id="path82"
               inkscape:connector-curvature="0" /></g></g></g></g><g
       id="g84"><g
         id="g86"
         clip-path="url(#clipPath90)"><g
           id="g92"><g
             id="g94" /><g
             id="g106"><g
               clip-path="url(#clipPath98)"
               id="g104"
               style="opacity:0.19999701"><g
                 transform="translate(619.9756,452.8175)"
                 id="g102"><path
                   d="m 0,0 c -0.432,-7.027 -0.63,-14.083 -0.658,-21.089 -7.222,1.146 -15.677,4.599 -24.43,9.051 0.947,6.183 2.018,12.35 3.227,18.485 C -14.474,3.14 -7.055,0.676 0,0"
                   style="fill:#412214;fill-opacity:1;fill-rule:nonzero;stroke:none"
                   id="path100"
                   inkscape:connector-curvature="0" /></g></g></g></g></g></g><g
       id="g108"><g
         id="g110"
         clip-path="url(#clipPath114)"><g
           id="g116"><g
             id="g118"><path
               d="m 696.904,502.99 c -0.088,-8.851 4.154,-16.736 10.751,-21.647 v 0 c -8.471,-0.701 -19.064,-3.68 -32.173,-9.501 v 0 c 25.989,10.174 41.544,5.069 42.242,-14.931 v 0 c 0.449,-12.904 -7.461,-36.263 -30.018,-77.336 v 0 c -34.667,-63.122 -47.134,-67.884 -57.714,-51.007 v 0 c 1.481,-23.075 19.137,-42.4 37.166,-31.409 v 0 c 11.629,14.417 24.821,34.561 39.712,61.482 v 0 c 19.403,35.077 43.509,99.364 21.033,117.8 v 0 c 12.532,2.064 22.151,12.885 22.28,26.022 v 0 c 0.146,14.712 -11.663,26.758 -26.375,26.903 v 0 c -0.09,10e-4 -0.178,0.002 -0.268,0.002 v 0 c -14.591,-0.001 -26.49,-11.754 -26.636,-26.378"
               style="fill:url(#linearGradient128);stroke:none"
               id="path130"
               inkscape:connector-curvature="0" /></g></g></g></g><g
       id="g132"><g
         id="g134"
         clip-path="url(#clipPath138)"><g
           id="g140"><g
             id="g142"><path
               d="m 605.751,554.469 c -0.131,-13.183 8.647,-24.376 20.723,-27.865 v 0 c -4.973,-5.564 -9.595,-14.488 -13.731,-25.741 v 0 C 578.461,407.575 577.601,154.125 687.307,325.666 v 0 c -66.684,-95.122 -82.263,109.428 -64.701,167.397 v 0 c 2.362,7.799 5.138,14.137 8.28,18.458 v 0 c 10.377,14.274 25.866,5.827 32.113,-7.554 v 0 c -4.198,10.671 -9.239,19.825 -15.051,24.874 v 0 c 8.964,4.782 15.105,14.185 15.214,25.06 v 0 c 0.156,15.854 -12.567,28.833 -28.422,28.989 v 0 c -0.097,10e-4 -0.193,0.002 -0.289,0.002 v 0 c -15.722,0 -28.544,-12.666 -28.7,-28.423"
               style="fill:url(#linearGradient154);stroke:none"
               id="path156"
               inkscape:connector-curvature="0" /></g></g></g></g><g
       id="g158"><g
         id="g160"
         clip-path="url(#clipPath164)"><g
           id="g166"><g
             id="g168" /><g
             id="g180"><g
               clip-path="url(#clipPath172)"
               id="g178"
               style="opacity:0.19999701"><g
                 transform="translate(617.8721,388.5959)"
                 id="g176"><path
                   d="m 0,0 c 1.587,-16.557 4.166,-32.557 7.808,-46.267 -9.623,3.324 -24.504,12.527 -33.343,18.277 -0.118,13.109 0.381,26.778 1.419,40.443 C -16.686,7.383 -8.416,2.79 0,0"
                   style="fill:#412214;fill-opacity:1;fill-rule:nonzero;stroke:none"
                   id="path174"
                   inkscape:connector-curvature="0" /></g></g></g></g></g></g><g
       id="g182"><g
         id="g184"
         clip-path="url(#clipPath188)"><g
           id="g190"><g
             id="g192"><path
               d="m 507.739,513.967 c -0.112,-11.212 6.452,-20.933 15.986,-25.39 v 0 c -26.253,-10.303 7.739,-84.897 71.024,-125.674 v 0 c 6.896,-4.444 14.988,-9.149 22.236,-13.13 v 0 c 37.521,-20.604 58.37,8.683 60.706,51.31 v 0 c 0.543,9.899 0.685,19.153 0.47,27.78 v 0 c -4.689,-42.587 -27.481,-47.636 -47.577,-46.188 v 0 c -43.526,3.138 -97.195,68.647 -97.751,88.381 v 0 c 0.488,9.358 9.394,16.806 29.032,8.234 v 0 c -6.751,3.69 -12.705,6.313 -17.92,8.02 v 0 c 11.048,3.555 19.093,13.865 19.214,26.109 v 0 c 0.152,15.304 -12.131,27.833 -27.437,27.985 v 0 c -0.093,10e-4 -0.186,10e-4 -0.279,10e-4 v 0 c -15.176,0 -27.554,-12.226 -27.704,-27.438"
               style="fill:url(#linearGradient204);stroke:none"
               id="path206"
               inkscape:connector-curvature="0" /></g></g></g></g><g
       id="g208"><g
         id="g210"
         clip-path="url(#clipPath214)"><g
           id="g216"
           transform="translate(136.0767,380.0793)"><path
             d="m 0,0 h -16.5 v 1.869 c 1.676,0.775 3.394,1.289 5.156,1.547 v 38.221 c -0.86,0.172 -1.719,0.397 -2.578,0.677 -0.86,0.279 -1.719,0.59 -2.578,0.934 v 1.87 H 0 v -1.87 c -0.773,-0.344 -1.611,-0.655 -2.514,-0.934 -0.902,-0.28 -1.783,-0.505 -2.642,-0.677 V 3.416 C -4.254,3.244 -3.352,3.029 -2.449,2.771 -1.546,2.514 -0.731,2.213 0,1.869 Z"
             style="fill:#231e46;fill-opacity:1;fill-rule:nonzero;stroke:none"
             id="path218"
             inkscape:connector-curvature="0" /></g><g
           id="g220"
           transform="translate(175.7275,380.0793)"><path
             d="m 0,0 h -13.857 v 1.611 c 1.16,0.602 2.427,1.118 3.802,1.547 v 15.276 c 0,3.265 -0.473,5.843 -1.418,7.734 -0.945,1.891 -2.664,2.836 -5.156,2.836 -1.074,0 -2.074,-0.193 -2.997,-0.58 -0.924,-0.386 -1.74,-0.913 -2.449,-1.579 -0.709,-0.666 -1.321,-1.418 -1.837,-2.256 -0.516,-0.838 -0.924,-1.708 -1.225,-2.61 V 3.158 c 1.332,-0.258 2.62,-0.772 3.867,-1.547 V 0 h -13.921 v 1.611 c 1.073,0.559 2.491,1.074 4.254,1.547 v 25.33 l -4.254,0.516 v 1.676 c 1.116,0.472 2.406,0.902 3.867,1.289 1.46,0.387 2.986,0.73 4.576,1.031 h 1.611 v -7.218 h 0.065 c 0.902,1.976 2.201,3.673 3.899,5.091 1.697,1.418 3.749,2.127 6.155,2.127 1.719,0 3.255,-0.204 4.609,-0.612 1.353,-0.409 2.481,-1.128 3.384,-2.159 0.902,-1.031 1.589,-2.417 2.062,-4.157 0.472,-1.74 0.71,-3.943 0.71,-6.607 V 3.158 C -2.536,2.857 -1.118,2.342 0,1.611 Z"
             style="fill:#231e46;fill-opacity:1;fill-rule:nonzero;stroke:none"
             id="path222"
             inkscape:connector-curvature="0" /></g><g
           id="g224"
           transform="translate(195.3921,387.4269)"><path
             d="M 0,0 C 0,1.203 -0.376,2.224 -1.128,3.063 -1.88,3.9 -2.836,4.684 -3.996,5.414 c -1.16,0.731 -2.396,1.44 -3.706,2.127 -1.311,0.688 -2.546,1.492 -3.706,2.417 -1.16,0.924 -2.117,1.987 -2.868,3.19 -0.753,1.204 -1.128,2.686 -1.128,4.449 0,1.16 0.267,2.233 0.805,3.221 0.537,0.989 1.257,1.837 2.16,2.546 0.902,0.709 1.954,1.268 3.158,1.676 1.202,0.408 2.491,0.612 3.867,0.612 2.32,0 4.222,-0.129 5.704,-0.385 C 1.772,25.009 3.201,24.643 4.576,24.171 4.404,22.795 4.2,21.409 3.963,20.013 3.727,18.616 3.394,17.187 2.965,15.727 H 1.354 l -2.45,6.574 c -0.515,0.215 -1.095,0.354 -1.74,0.42 -0.644,0.063 -1.311,0.095 -1.998,0.095 -0.773,0 -1.45,-0.139 -2.03,-0.419 -0.58,-0.279 -1.075,-0.633 -1.483,-1.063 -0.408,-0.43 -0.72,-0.924 -0.934,-1.481 -0.216,-0.56 -0.323,-1.12 -0.323,-1.676 0,-1.16 0.376,-2.16 1.128,-2.998 0.751,-0.838 1.708,-1.611 2.869,-2.321 1.16,-0.708 2.394,-1.407 3.706,-2.093 C -0.591,10.076 0.645,9.303 1.805,8.444 2.965,7.584 3.921,6.585 4.673,5.446 5.424,4.308 5.801,2.943 5.801,1.354 5.801,-0.107 5.489,-1.418 4.866,-2.578 4.243,-3.738 3.384,-4.727 2.288,-5.542 1.192,-6.359 -0.075,-6.992 -1.515,-7.444 -2.955,-7.896 -4.491,-8.12 -6.123,-8.12 c -1.848,0 -3.545,0.16 -5.092,0.482 -1.547,0.323 -3.158,0.784 -4.834,1.386 0.086,1.548 0.279,3.04 0.58,4.48 0.3,1.439 0.687,2.825 1.16,4.157 h 1.612 l 2.836,-7.025 c 0.472,-0.344 1.041,-0.538 1.708,-0.58 0.666,-0.044 1.278,-0.064 1.837,-0.064 1.89,0 3.416,0.514 4.575,1.546 C -0.58,-2.706 0,-1.461 0,0"
             style="fill:#231e46;fill-opacity:1;fill-rule:nonzero;stroke:none"
             id="path226"
             inkscape:connector-curvature="0" /></g><g
           id="g228"
           transform="translate(204.1772,410.6857)"><path
             d="M 0,0 C 1.632,1.065 3.352,1.821 5.156,2.265 V 7.744 C 5.714,8.216 6.37,8.635 7.122,9 7.873,9.365 8.614,9.72 9.346,10.063 h 1.611 V 1.62 h 9.668 v -3.351 h -9.668 v -18.598 c 0,-2.566 0.408,-4.383 1.225,-5.451 0.815,-1.07 2.04,-1.603 3.673,-1.603 0.773,0 1.741,0.053 2.901,0.16 1.16,0.108 2.148,0.312 2.964,0.613 l 0.452,-0.967 c -0.345,-0.386 -0.828,-0.795 -1.45,-1.224 -0.624,-0.43 -1.333,-0.838 -2.128,-1.225 -0.795,-0.387 -1.665,-0.709 -2.61,-0.967 -0.945,-0.258 -1.912,-0.386 -2.9,-0.386 -2.578,0 -4.544,0.728 -5.898,2.181 -1.353,1.454 -2.03,3.807 -2.03,7.059 V -1.731 H 0 Z"
             style="fill:#231e46;fill-opacity:1;fill-rule:nonzero;stroke:none"
             id="path230"
             inkscape:connector-curvature="0" /></g><g
           id="g232"
           transform="translate(243.7373,380.0793)"><path
             d="m 0,0 h -14.309 v 1.611 c 0.644,0.344 1.31,0.634 1.998,0.87 0.687,0.237 1.44,0.462 2.256,0.677 v 25.33 l -4.254,0.516 v 1.676 c 1.246,0.516 2.6,0.966 4.061,1.354 1.46,0.386 2.921,0.708 4.383,0.966 h 1.611 V 3.158 C -3.395,2.943 -2.622,2.718 -1.934,2.481 -1.247,2.245 -0.602,1.955 0,1.611 Z"
             style="fill:#231e46;fill-opacity:1;fill-rule:nonzero;stroke:none"
             id="path234"
             inkscape:connector-curvature="0" /></g><g
           id="g236"
           transform="translate(244.7749,410.6857)"><path
             d="M 0,0 C 1.632,1.065 3.352,1.821 5.156,2.265 V 7.744 C 5.714,8.216 6.37,8.635 7.122,9 7.873,9.365 8.614,9.72 9.346,10.063 h 1.611 V 1.62 h 9.668 v -3.351 h -9.668 v -18.598 c 0,-2.566 0.408,-4.383 1.225,-5.451 0.815,-1.07 2.04,-1.603 3.673,-1.603 0.773,0 1.741,0.053 2.901,0.16 1.16,0.108 2.148,0.312 2.964,0.613 l 0.452,-0.967 c -0.345,-0.386 -0.828,-0.795 -1.45,-1.224 -0.624,-0.43 -1.333,-0.838 -2.128,-1.225 -0.795,-0.387 -1.665,-0.709 -2.61,-0.967 -0.945,-0.258 -1.912,-0.386 -2.9,-0.386 -2.578,0 -4.544,0.728 -5.898,2.181 -1.353,1.454 -2.03,3.807 -2.03,7.059 V -1.731 H 0 Z"
             style="fill:#231e46;fill-opacity:1;fill-rule:nonzero;stroke:none"
             id="path238"
             inkscape:connector-curvature="0" /></g><g
           id="g240"
           transform="translate(272.5918,392.841)"><path
             d="m 0,0 c 0,2.707 0.064,5.36 0.193,7.96 0.129,2.6 0.193,5.188 0.193,7.767 l -4.254,0.515 v 1.676 c 1.375,0.517 2.782,0.967 4.222,1.354 1.439,0.386 2.846,0.708 4.222,0.966 H 6.187 C 6.187,17.017 6.123,13.814 5.994,10.635 5.865,7.455 5.8,4.297 5.8,1.16 c 0,-1.676 0.097,-3.18 0.29,-4.512 0.194,-1.332 0.537,-2.448 1.032,-3.35 0.493,-0.903 1.17,-1.602 2.03,-2.096 0.859,-0.494 1.955,-0.74 3.287,-0.74 1.934,0 3.555,0.697 4.867,2.094 1.309,1.396 2.33,3.212 3.061,5.446 v 17.725 l -4.189,0.515 v 1.676 c 1.331,0.517 2.717,0.967 4.156,1.354 1.44,0.386 2.847,0.708 4.223,0.966 h 1.611 V -9.088 l 4.253,-0.516 v -1.352 c -1.246,-0.56 -2.503,-1.054 -3.77,-1.483 -1.268,-0.429 -2.589,-0.751 -3.964,-0.967 h -1.611 l -0.451,7.67 h -0.258 c -0.216,-0.902 -0.591,-1.816 -1.128,-2.74 -0.538,-0.923 -1.236,-1.761 -2.094,-2.512 -0.861,-0.753 -1.837,-1.366 -2.933,-1.838 -1.096,-0.472 -2.288,-0.708 -3.578,-0.708 -1.718,0 -3.233,0.204 -4.544,0.612 -1.311,0.407 -2.416,1.128 -3.319,2.158 -0.902,1.032 -1.59,2.418 -2.063,4.158 C 0.235,-4.866 0,-2.665 0,0"
             style="fill:#231e46;fill-opacity:1;fill-rule:nonzero;stroke:none"
             id="path242"
             inkscape:connector-curvature="0" /></g><g
           id="g244"
           transform="translate(303.6318,410.6857)"><path
             d="M 0,0 C 1.632,1.065 3.352,1.821 5.156,2.265 V 7.744 C 5.714,8.216 6.37,8.635 7.122,9 7.873,9.365 8.614,9.72 9.346,10.063 h 1.611 V 1.62 h 9.668 v -3.351 h -9.668 v -18.598 c 0,-2.566 0.408,-4.383 1.225,-5.451 0.815,-1.07 2.04,-1.603 3.673,-1.603 0.773,0 1.741,0.053 2.901,0.16 1.16,0.108 2.148,0.312 2.964,0.613 l 0.452,-0.967 c -0.345,-0.386 -0.828,-0.795 -1.451,-1.224 -0.623,-0.43 -1.332,-0.838 -2.127,-1.225 -0.795,-0.387 -1.665,-0.709 -2.61,-0.967 -0.945,-0.258 -1.912,-0.386 -2.9,-0.386 -2.578,0 -4.544,0.728 -5.898,2.181 -1.353,1.454 -2.03,3.807 -2.03,7.059 V -1.731 H 0 Z"
             style="fill:#231e46;fill-opacity:1;fill-rule:nonzero;stroke:none"
             id="path246"
             inkscape:connector-curvature="0" /></g><g
           id="g248"
           transform="translate(327.4399,396.1935)"><path
             d="m 0,0 c 0,2.706 0.354,5.102 1.063,7.186 0.709,2.084 1.729,3.845 3.062,5.285 1.331,1.439 2.933,2.535 4.801,3.287 1.87,0.752 3.943,1.128 6.22,1.128 2.664,0 4.963,-0.408 6.896,-1.224 1.935,-0.817 3.514,-1.966 4.738,-3.448 1.225,-1.484 2.127,-3.256 2.707,-5.318 0.58,-2.062 0.87,-4.362 0.87,-6.896 0,-5.414 -1.376,-9.583 -4.125,-12.505 -2.75,-2.923 -6.445,-4.382 -11.086,-4.382 -2.578,0 -4.813,0.398 -6.703,1.193 -1.891,0.794 -3.459,1.933 -4.705,3.416 C 2.492,-10.797 1.557,-9.014 0.934,-6.93 0.312,-4.846 0,-2.536 0,0"
             style="fill:#231e46;fill-opacity:1;fill-rule:nonzero;stroke:none"
             id="path250"
             inkscape:connector-curvature="0" /></g><g
           id="g252"
           transform="translate(268.8701,283.7384)"><path
             d="m 0,0 -32.041,72.083 c -3.098,1.069 -5.927,2.353 -8.49,3.853 v 6.087 H 1.601 V 76.097 C 0.212,75.346 -1.201,74.621 -2.645,73.927 -4.086,73.23 -5.714,72.614 -7.53,72.079 L 7.369,30.95 10.412,20.187 h 0.321 l 2.564,10.925 13.616,40.969 c -1.71,0.426 -3.284,0.961 -4.726,1.604 -1.441,0.643 -2.803,1.394 -4.085,2.251 v 6.087 h 30.919 v -6.087 c -1.069,-0.75 -2.378,-1.447 -3.925,-2.087 -1.55,-0.644 -3.285,-1.233 -5.206,-1.766 L 11.854,1.929 Z"
             style="fill:#231e46;fill-opacity:1;fill-rule:nonzero;stroke:none"
             id="path254"
             inkscape:connector-curvature="0" /></g><g
           id="g256"
           transform="translate(366.4771,285.6613)"><path
             d="m 0,0 h -44.214 v 6.088 c 1.602,0.858 3.256,1.582 4.965,2.173 1.708,0.59 3.578,1.153 5.607,1.692 v 58.926 l -10.572,1.289 v 6.088 c 1.602,0.64 3.604,1.281 6.007,1.923 2.402,0.64 4.939,1.2 7.609,1.681 2.668,0.482 5.287,0.906 7.849,1.283 2.564,0.371 4.807,0.664 6.73,0.878 h 5.447 V 9.94 C -8.438,9.404 -6.516,8.844 -4.805,8.256 -3.098,7.665 -1.496,6.944 0,6.088 Z"
             style="fill:#231e46;fill-opacity:1;fill-rule:nonzero;stroke:none"
             id="path258"
             inkscape:connector-curvature="0" /></g><g
           id="g260"
           transform="translate(410.2588,296.5548)"><path
             d="m 0,0 c 3.737,0 6.888,1.174 9.452,3.525 2.562,2.348 4.43,6.353 5.607,12.014 v 43.096 c -1.39,0.852 -3.125,1.546 -5.207,2.082 -2.083,0.533 -4.673,0.801 -7.77,0.801 -6.195,0 -10.628,-2.804 -13.296,-8.412 -2.672,-5.607 -4.006,-13.751 -4.006,-24.429 0,-8.651 1.174,-15.595 3.525,-20.827 C -9.347,2.617 -5.447,0 0,0 M 14.578,4.967 C 14.042,2.617 13.082,0.373 11.694,-1.763 10.304,-3.898 8.65,-5.794 6.728,-7.449 4.806,-9.105 2.615,-10.413 0.16,-11.373 c -2.459,-0.962 -5.074,-1.443 -7.849,-1.443 -10.574,0 -18.613,3.337 -24.111,10.012 -5.502,6.674 -8.25,16.902 -8.25,30.68 0,7.049 0.96,13.215 2.883,18.503 1.923,5.286 4.618,9.745 8.09,13.376 3.469,3.63 7.662,6.352 12.576,8.171 4.911,1.814 10.358,2.722 16.34,2.722 1.923,0 3.549,-0.054 4.886,-0.159 1.334,-0.108 2.564,-0.24 3.686,-0.402 1.12,-0.158 2.186,-0.427 3.202,-0.801 1.015,-0.374 2.163,-0.775 3.446,-1.2 V 96.434 L 2.883,97.723 v 6.088 c 1.494,0.639 3.55,1.226 6.168,1.761 2.616,0.533 5.366,1.041 8.251,1.522 2.883,0.481 5.712,0.934 8.49,1.362 2.775,0.426 5.071,0.801 6.888,1.122 h 5.447 V 0.481 L 48.7,-0.801 v -5.607 c -1.497,-0.748 -3.419,-1.442 -5.767,-2.082 -2.35,-0.641 -4.806,-1.23 -7.369,-1.763 -2.563,-0.535 -5.047,-0.986 -7.449,-1.361 -2.403,-0.373 -4.405,-0.666 -6.008,-0.881 H 16.661 L 15.218,4.967 Z"
             style="fill:#231e46;fill-opacity:1;fill-rule:nonzero;stroke:none"
             id="path262"
             inkscape:connector-curvature="0" /></g><g
           id="g264"
           transform="translate(499.1689,296.5548)"><path
             d="m 0,0 c 2.242,0 4.165,0.426 5.768,1.283 1.601,0.853 2.961,1.867 4.084,3.043 1.122,1.174 1.974,2.455 2.563,3.845 0.587,1.386 1.041,2.615 1.362,3.684 V 27.876 C 8.755,27.769 4.646,27.447 1.441,26.914 c -3.204,-0.536 -5.714,-1.416 -7.529,-2.643 -1.816,-1.229 -3.071,-2.779 -3.765,-4.646 -0.696,-1.869 -1.041,-4.14 -1.041,-6.809 0,-4.06 0.961,-7.209 2.883,-9.451 C -6.088,1.122 -3.42,0 0,0 m 36.044,12.335 c 0,-2.35 0.025,-4.379 0.081,-6.087 0.052,-1.71 0.185,-3.523 0.4,-5.446 L 47.58,-0.801 v -5.607 c -1.283,-0.641 -3.02,-1.281 -5.207,-1.922 -2.191,-0.64 -4.486,-1.257 -6.89,-1.842 -2.401,-0.589 -4.779,-1.067 -7.128,-1.442 -2.35,-0.373 -4.433,-0.666 -6.248,-0.881 H 16.66 c -1.068,2.456 -1.709,4.911 -1.923,7.369 -0.215,2.455 -0.375,5.447 -0.479,8.971 H 13.456 C 12.921,1.707 12.015,-0.348 10.732,-2.322 9.451,-4.3 7.821,-6.062 5.847,-7.609 c -1.978,-1.549 -4.3,-2.804 -6.968,-3.764 -2.671,-0.962 -5.663,-1.443 -8.972,-1.443 -3.525,0 -6.784,0.536 -9.772,1.602 -2.991,1.068 -5.608,2.564 -7.851,4.486 -2.242,1.922 -4.005,4.246 -5.286,6.968 -1.281,2.724 -1.921,5.793 -1.921,9.212 0,4.806 0.905,8.756 2.723,11.855 1.813,3.096 4.67,5.632 8.571,7.61 3.896,1.975 8.915,3.444 15.058,4.405 6.139,0.962 13.589,1.655 22.348,2.082 0.853,9.185 0.481,15.913 -1.122,20.185 -1.601,4.272 -5.074,6.408 -10.413,6.408 -3.311,0 -6.355,-0.535 -9.131,-1.601 l -7.53,-19.224 h -7.049 c -0.855,1.281 -1.681,2.748 -2.482,4.406 -0.801,1.653 -1.549,3.416 -2.243,5.286 -0.697,1.867 -1.281,3.765 -1.762,5.687 -0.481,1.923 -0.829,3.79 -1.041,5.607 4.058,2.778 9.291,4.967 15.699,6.569 6.408,1.6 13.189,2.401 20.345,2.401 6.088,0 11.055,-0.667 14.899,-2.001 3.844,-1.337 6.862,-3.15 9.051,-5.448 2.189,-2.297 3.709,-4.993 4.566,-8.09 0.854,-3.098 1.282,-6.406 1.282,-9.932 0,-6.408 -0.136,-12.202 -0.401,-17.381 -0.268,-5.181 -0.401,-10.493 -0.401,-15.941"
             style="fill:#231e46;fill-opacity:1;fill-rule:nonzero;stroke:none"
             id="path266"
             inkscape:connector-curvature="0" /></g></g></g></g></svg>